#N canvas 151 244 982 446 10;
#X obj 599 93 tabwrite~ \$0-A;
#N canvas 0 50 450 278 (subpatch) 0;
#X array \$0-A 257 float 4;
#X coords 0 1 256 -1 80 100 2 0 0;
#X restore 10 10 graph;
#X obj 649 48 tgl 15 0 empty empty empty 17 7 0 10 -262144 -1 -1 1
1;
#X obj 599 10 inlet~;
#X obj 649 10 loadbang;
#X obj 649 69 metro 100;
#X obj 600 47 *~ 3;
#X connect 2 0 5 0;
#X connect 3 0 6 0;
#X connect 4 0 2 0;
#X connect 5 0 0 0;
#X connect 6 0 0 0;
#X coords 0 -1 1 1 80 100 2 10 10;
