#N canvas 195 123 1138 639 10;
#X obj 33 83 osc~;
#X obj 33 38 r f;
#X obj 33 60 * 1;
#X obj 33 105 *~;
#X obj 78 28 vsl 15 70 0 0.25 0 0 empty empty empty 0 -9 0 10 -262130
-1 -1 1900 1;
#X msg 78 106 \$1 20;
#X obj 78 128 line~;
#X obj 43 157 throw~ mono;
#X obj 102 387 catch~ mono;
#X obj 133 83 osc~;
#X obj 133 38 r f;
#X obj 133 105 *~;
#X obj 178 28 vsl 15 70 0 0.25 0 0 empty empty empty 0 -9 0 10 -262130
-1 -1 1800 1;
#X msg 178 106 \$1 20;
#X obj 178 128 line~;
#X obj 143 157 throw~ mono;
#X obj 233 83 osc~;
#X obj 233 38 r f;
#X obj 233 105 *~;
#X obj 278 28 vsl 15 70 0 0.25 0 0 empty empty empty 0 -9 0 10 -262130
-1 -1 1000 1;
#X msg 278 106 \$1 20;
#X obj 278 128 line~;
#X obj 243 157 throw~ mono;
#X obj 333 83 osc~;
#X obj 333 38 r f;
#X obj 333 105 *~;
#X obj 378 28 vsl 15 70 0 0.25 0 0 empty empty empty 0 -9 0 10 -262130
-1 -1 1400 1;
#X msg 378 106 \$1 20;
#X obj 378 128 line~;
#X obj 343 157 throw~ mono;
#X obj 433 83 osc~;
#X obj 433 38 r f;
#X obj 433 105 *~;
#X obj 478 28 vsl 15 70 0 0.25 0 0 empty empty empty 0 -9 0 10 -262130
-1 -1 1100 1;
#X msg 478 106 \$1 20;
#X obj 478 128 line~;
#X obj 443 157 throw~ mono;
#X obj 533 83 osc~;
#X obj 533 38 r f;
#X obj 533 105 *~;
#X obj 578 28 vsl 15 70 0 0.25 0 0 empty empty empty 0 -9 0 10 -262130
-1 -1 0 1;
#X msg 578 106 \$1 20;
#X obj 578 128 line~;
#X obj 543 157 throw~ mono;
#X obj 633 83 osc~;
#X obj 633 38 r f;
#X obj 633 105 *~;
#X obj 678 28 vsl 15 70 0 0.25 0 0 empty empty empty 0 -9 0 10 -262130
-1 -1 0 1;
#X msg 678 106 \$1 20;
#X obj 678 128 line~;
#X obj 643 157 throw~ mono;
#X obj 733 83 osc~;
#X obj 733 38 r f;
#X obj 733 105 *~;
#X obj 778 28 vsl 15 70 0 0.25 0 0 empty empty empty 0 -9 0 10 -262130
-1 -1 700 1;
#X msg 778 106 \$1 20;
#X obj 778 128 line~;
#X obj 743 157 throw~ mono;
#X obj 833 83 osc~;
#X obj 833 38 r f;
#X obj 833 105 *~;
#X obj 878 28 vsl 15 70 0 0.25 0 0 empty empty empty 0 -9 0 10 -262130
-1 -1 0 1;
#X msg 878 106 \$1 20;
#X obj 878 128 line~;
#X obj 843 157 throw~ mono;
#X obj 959 24 key;
#X floatatom 959 46 5 0 0 0 - - -, f 5;
#X obj 959 96 mtof;
#X floatatom 959 148 10 0 0 0 - - -, f 10;
#X obj 959 69 + 11;
#X obj 959 167 s f;
#X obj 83 496 dac~;
#X obj 1030 23 tgl 15 0 empty empty empty 17 7 0 10 -262144 -1 -1 1
1;
#X msg 1030 43 \; pd dsp \$1;
#X obj 133 60 * 2;
#X obj 233 60 * 3;
#X obj 334 60 * 4;
#X obj 433 60 * 5;
#X obj 533 60 * 6;
#X obj 633 60 * 7;
#X obj 733 60 * 8;
#X obj 833 60 * 9;
#X obj 34 396 vsl 15 70 0 1 0 0 empty empty empty 0 -9 0 10 -204786
-1 -1 4200 1;
#X msg 34 474 \$1 20;
#X obj 34 496 line~;
#X obj 83 447 *~;
#X obj 327 416 abs-oscilloscope;
#X obj 34 211 abs-oscilloscope-short;
#X obj 133 211 abs-oscilloscope-short;
#X obj 233 211 abs-oscilloscope-short;
#X obj 333 211 abs-oscilloscope-short;
#X obj 433 211 abs-oscilloscope-short;
#X obj 533 211 abs-oscilloscope-short;
#X obj 633 211 abs-oscilloscope-short;
#X obj 733 211 abs-oscilloscope-short;
#X obj 833 211 abs-oscilloscope-short;
#X connect 0 0 3 0;
#X connect 1 0 2 0;
#X connect 2 0 0 0;
#X connect 3 0 7 0;
#X connect 3 0 87 0;
#X connect 4 0 5 0;
#X connect 5 0 6 0;
#X connect 6 0 3 1;
#X connect 8 0 86 0;
#X connect 8 0 85 1;
#X connect 9 0 11 0;
#X connect 10 0 74 0;
#X connect 11 0 15 0;
#X connect 11 0 88 0;
#X connect 12 0 13 0;
#X connect 13 0 14 0;
#X connect 14 0 11 1;
#X connect 16 0 18 0;
#X connect 17 0 75 0;
#X connect 18 0 22 0;
#X connect 18 0 89 0;
#X connect 19 0 20 0;
#X connect 20 0 21 0;
#X connect 21 0 18 1;
#X connect 23 0 25 0;
#X connect 24 0 76 0;
#X connect 25 0 29 0;
#X connect 25 0 90 0;
#X connect 26 0 27 0;
#X connect 27 0 28 0;
#X connect 28 0 25 1;
#X connect 30 0 32 0;
#X connect 31 0 77 0;
#X connect 32 0 36 0;
#X connect 32 0 91 0;
#X connect 33 0 34 0;
#X connect 34 0 35 0;
#X connect 35 0 32 1;
#X connect 37 0 39 0;
#X connect 38 0 78 0;
#X connect 39 0 43 0;
#X connect 39 0 92 0;
#X connect 40 0 41 0;
#X connect 41 0 42 0;
#X connect 42 0 39 1;
#X connect 44 0 46 0;
#X connect 45 0 79 0;
#X connect 46 0 50 0;
#X connect 46 0 93 0;
#X connect 47 0 48 0;
#X connect 48 0 49 0;
#X connect 49 0 46 1;
#X connect 51 0 53 0;
#X connect 52 0 80 0;
#X connect 53 0 57 0;
#X connect 53 0 94 0;
#X connect 54 0 55 0;
#X connect 55 0 56 0;
#X connect 56 0 53 1;
#X connect 58 0 60 0;
#X connect 59 0 81 0;
#X connect 60 0 64 0;
#X connect 60 0 95 0;
#X connect 61 0 62 0;
#X connect 62 0 63 0;
#X connect 63 0 60 1;
#X connect 65 0 66 0;
#X connect 66 0 69 0;
#X connect 68 0 70 0;
#X connect 69 0 67 0;
#X connect 72 0 73 0;
#X connect 74 0 9 0;
#X connect 75 0 16 0;
#X connect 76 0 23 0;
#X connect 77 0 30 0;
#X connect 78 0 37 0;
#X connect 79 0 44 0;
#X connect 80 0 51 0;
#X connect 81 0 58 0;
#X connect 82 0 83 0;
#X connect 83 0 84 0;
#X connect 84 0 85 0;
#X connect 85 0 71 0;
#X connect 85 0 71 1;
