#N canvas 127 219 877 531 10;
#X obj 212 287 osc~;
#X floatatom 212 151 10 0 0 0 - - -, f 10;
#X msg 36 27 20;
#X msg 76 27 60;
#X msg 116 27 120;
#X msg 156 27 500;
#X msg 196 27 1000;
#X msg 212 57 5000;
#X msg 262 57 10000;
#X msg 322 57 15000;
#X msg 382 57 20000;
#X obj 215 121 hsl 128 15 20 20000 1 0 empty empty freq -2 8 0 10 -204786
-1 -1 10151 1;
#X obj 212 339 *~;
#X obj 350 182 vsl 15 100 0 1 0 0 empty empty vol 0 -9 0 10 -262130
-1 -1 5800 1;
#X msg 350 290 \$1 20;
#X obj 350 312 line~;
#X obj 361 479 dac~;
#X obj 529 94 line~;
#X msg 529 37 20 \, 20000 10000;
#X msg 560 61 20000 \, 20 10000;
#X obj 718 112 snapshot~;
#X floatatom 718 144 10 0 0 0 - - -, f 10;
#X obj 718 87 metro 10;
#X obj 718 68 tgl 15 0 empty empty empty 17 7 0 10 -262144 -1 -1 0
1;
#X obj 212 389 throw~ L;
#X obj 239 409 throw~ R;
#X obj 360 429 catch~ L;
#X obj 387 449 catch~ R;
#X obj 529 287 osc~;
#X obj 529 339 *~;
#X obj 587 182 vsl 15 100 0 1 0 0 empty empty vol 0 -9 0 10 -262130
-1 -1 0 1;
#X msg 587 290 \$1 20;
#X obj 587 312 line~;
#X obj 529 389 throw~ L;
#X obj 556 409 throw~ R;
#X obj 734 223 tgl 15 0 empty empty empty 17 7 0 10 -262144 -1 -1 1
1;
#X msg 734 243 \; pd dsp \$1;
#X connect 0 0 12 0;
#X connect 1 0 0 0;
#X connect 2 0 11 0;
#X connect 3 0 11 0;
#X connect 4 0 11 0;
#X connect 5 0 11 0;
#X connect 6 0 11 0;
#X connect 7 0 11 0;
#X connect 8 0 11 0;
#X connect 9 0 11 0;
#X connect 10 0 11 0;
#X connect 11 0 1 0;
#X connect 12 0 24 0;
#X connect 12 0 25 0;
#X connect 13 0 14 0;
#X connect 14 0 15 0;
#X connect 15 0 12 1;
#X connect 17 0 20 0;
#X connect 17 0 28 0;
#X connect 18 0 17 0;
#X connect 19 0 17 0;
#X connect 20 0 21 0;
#X connect 22 0 20 0;
#X connect 23 0 22 0;
#X connect 26 0 16 0;
#X connect 27 0 16 1;
#X connect 28 0 29 0;
#X connect 29 0 33 0;
#X connect 29 0 34 0;
#X connect 30 0 31 0;
#X connect 31 0 32 0;
#X connect 32 0 29 1;
#X connect 35 0 36 0;
